<?xml version="1.0" standalone="no"?>
<!DOCTYPE svg PUBLIC "-//W3C//DTD SVG 20010904//EN"
 "http://www.w3.org/TR/2001/REC-SVG-20010904/DTD/svg10.dtd">
<svg version="1.0" xmlns="http://www.w3.org/2000/svg"
 width="1000.000000pt" height="1000.000000pt" viewBox="0 0 1000.000000 1000.000000"
 preserveAspectRatio="xMidYMid meet">
<metadata>
Created by potrace 1.11, written by Peter Selinger 2001-2013
</metadata>
<g transform="translate(0.000000,1000.000000) scale(0.100000,-0.100000)"
fill="#000000" stroke="none">
<path d="M1442 5031 l0 -3636 472 0 472 0 0 3635 -1 3635 -472 1 -471 1 0
-3636z"/>
<path d="M6258 6634 c-2 -1 -46 -5 -98 -8 -53 -4 -105 -8 -115 -10 -11 -2 -46
-7 -79 -11 -71 -8 -91 -12 -181 -31 -38 -8 -81 -17 -95 -20 -145 -29 -383
-115 -575 -209 -454 -222 -819 -564 -1073 -1005 -167 -291 -290 -651 -318
-932 -3 -35 -8 -66 -10 -69 -15 -26 -23 -447 -10 -584 19 -197 20 -203 52
-365 28 -137 76 -293 132 -430 34 -84 126 -276 142 -295 4 -5 20 -32 35 -60
32 -59 139 -215 204 -299 73 -95 298 -316 401 -395 259 -200 537 -346 835
-439 72 -22 146 -44 165 -48 43 -10 39 -9 75 -17 44 -11 71 -16 165 -32 82
-14 106 -17 255 -31 137 -14 593 -6 655 11 8 3 33 7 55 9 22 3 65 10 95 16 30
6 69 13 85 15 17 3 80 18 140 35 579 161 1037 492 1322 954 l43 69 -51 31
c-101 62 -416 260 -494 310 -44 29 -101 64 -126 78 l-46 27 -54 -76 c-102
-143 -281 -311 -429 -404 -180 -113 -438 -211 -615 -233 -27 -4 -77 -11 -110
-15 -115 -17 -361 -10 -545 14 -228 30 -555 166 -751 312 -444 329 -688 851
-692 1481 0 83 11 295 17 314 3 7 8 30 11 51 13 93 19 119 51 232 135 467 437
840 846 1041 134 67 311 131 404 147 16 3 54 10 84 17 155 31 535 35 685 7
126 -24 123 -23 190 -42 330 -92 624 -293 832 -569 42 -56 80 -100 84 -99 9 3
90 54 234 148 110 71 305 198 392 254 40 25 72 52 73 58 1 35 -165 262 -286
392 -209 224 -523 426 -847 545 -96 36 -327 99 -397 110 -19 3 -46 8 -60 11
-27 6 -85 14 -140 20 -19 2 -64 7 -100 11 -59 6 -456 14 -462 8z"/>
</g>
</svg>
